# xmcd
#
# Track frame offsets:
#	150
#	11923
#	24100
#	35724
#	44966
#	56860
#	68088
#	77369
#	86867
#	96126
#	108292
#	117632
#	127105
#	137042
#	146377
#	155935
#	165237
#	174423
#	185844
#	195593
#
# Disc length: 2740 seconds
#
# Revision: 2
# Processed by: cddbd v1.5.2PL0 Copyright (c) Steve Scherf et al.
# Submitted via: EasyCDDAExtractor 6.5.0.1
#
DISCID=210ab214
DTITLE=THE WILLIS BROTHERS - 20 GREAT TRUCK DRIVIN' SONGS
DYEAR=2008
DGENRE=Country
TTITLE0=GIVE ME FORTY ACRES
TTITLE1=IT'S THE MILES
TTITLE2=BIG DADDY
TTITLE3=BLAZING SMOKESTACK
TTITLE4=DIESEL SMOKE ON DANGER ROAD
TTITLE5=CONVOY IN THE SKY
TTITLE6=DRIVIN'S IN MY BOOD
TTITLE7=GEAR SHIFTIN'
TTITLE8=HIGHWAY PATROL
TTITLE9=LONG HAUL WEEKEND
TTITLE10=HI BALLIN'
TTITLE11=TRUCK DRIVER'S QUEEN
TTITLE12=DIESEL DRIVIN' DONUT DUNKIN' MAN
TTITLE13=SOFT SHOULDERS AND DANGEROUS CURVES
TTITLE14=WHEELS A-TURNING
TTITLE15=TRUCK STOP CUTIE
TTITLE16=WHEN I COME DRIVING THROUGH
TTITLE17=TRUCK DRIVING SAM
TTITLE18=MOTORCYCLE BILL
TTITLE19=END OF THE ROAD
EXTD=
EXTT0=
EXTT1=
EXTT2=
EXTT3=
EXTT4=
EXTT5=
EXTT6=
EXTT7=
EXTT8=
EXTT9=
EXTT10=
EXTT11=
EXTT12=
EXTT13=
EXTT14=
EXTT15=
EXTT16=
EXTT17=
EXTT18=
EXTT19=
PLAYORDER=
